# Blender 5.0.1
# www.blender.org
mtllib CardBoardBox.mtl
o Cube
v 12.354424 -0.502870 -7.696039
v 12.354424 -0.502870 8.241087
v -10.114727 -0.502870 8.241085
v -10.114724 -0.502870 -7.696044
v 12.354427 13.661090 -7.696035
v 12.354420 13.661090 8.241091
v -10.114728 13.661090 8.241084
v -10.114725 13.661090 -7.696039
v 12.354427 8.973134 -14.853090
v -10.114725 8.973134 -14.853093
v 12.354420 9.227473 15.939149
v -10.114728 9.227473 15.939142
v 17.822208 8.587549 -7.696035
v 17.822203 8.587549 8.241091
v -15.702114 9.696420 8.241079
v -15.702112 9.696420 -7.696045
v 12.294621 -0.716685 0.642569
v -10.174526 -0.234965 0.642565
v 6.647434 -0.502870 -7.696039
v 6.647434 -0.502870 8.241087
v -4.527341 -0.169466 8.241085
v -4.527338 -0.501809 -7.696044
v 12.354424 -0.396405 0.543028
v -10.114727 -0.396405 0.543026
v 1.119850 -0.502870 -7.696042
v 1.119851 13.661090 -7.696037
v 1.119851 8.973134 -14.853092
v 1.060047 -0.234965 0.642567
v -10.114725 -0.502870 0.272521
v -10.114727 13.661090 0.272522
v -15.702112 9.696420 0.272517
v -4.527339 -0.302721 0.272521
v -10.173046 1.816620 4.485985
v -10.185236 1.816620 7.724644
v -10.173046 6.932798 4.485985
v -10.185236 6.932797 7.724644
v 12.346388 -0.486487 -7.687853
v 12.346239 -0.486503 8.233016
v -10.106880 -0.486400 8.232890
v -10.106633 -0.486360 -7.688173
v 12.350584 13.679951 -7.690603
v 12.350672 13.679838 8.235220
v -10.110060 13.679729 8.235534
v -10.109948 13.679822 -7.690913
v 12.354427 8.989864 -14.864049
v -10.114725 8.989864 -14.864052
v 12.354420 9.244804 15.949131
v -10.114728 9.244804 15.949124
v 17.835812 8.602210 -7.696035
v 17.835806 8.602210 8.241091
v -15.713688 9.712730 8.241079
v -15.713686 9.712730 -7.696045
v 12.295050 -0.696689 0.642507
v -10.174526 -0.214976 0.641923
v 6.647434 -0.482870 -7.696039
v 6.647434 -0.482870 8.241087
v -4.528295 -0.149490 8.240918
v -4.527698 -0.481813 -7.696294
v 12.354424 -0.376407 0.543304
v -10.114727 -0.376407 0.543303
v 1.120003 -0.488606 -7.682024
v 1.119851 13.678685 -7.686529
v 1.119851 8.989864 -14.864051
v 1.060260 -0.214970 0.642213
v -10.100817 -0.488499 0.272371
v -10.105548 13.678859 0.272522
v -15.713686 9.712730 0.272517
v -4.527997 -0.282733 0.272313
v -10.153047 1.816620 4.486060
v -10.165236 1.816620 7.724720
v -10.153047 6.932798 4.486060
v -10.165236 6.932797 7.724720
vn -0.0214 -0.9998 0.0031
vn 1.0000 -0.0000 -0.0000
vn -0.0000 -0.0000 1.0000
vn -1.0000 -0.0000 -0.0000
vn -0.0000 -0.0000 -1.0000
vn -0.0000 -0.8365 0.5479
vn -0.0000 -0.8666 -0.4991
vn -0.6802 -0.7330 -0.0000
vn 0.5787 -0.8155 -0.0000
vn -0.0000 -1.0000 -0.0000
vn 0.0180 -0.9998 0.0125
vn -0.0000 -0.9999 -0.0138
vn -0.0000 -0.9995 0.0321
vn 0.0477 -0.9988 0.0084
vn -1.0000 -0.0000 -0.0038
vn 0.0213 0.9998 -0.0037
vn -1.0000 0.0003 -0.0000
vn -0.0000 0.0002 -1.0000
vn 1.0000 0.0003 -0.0006
vn -0.0005 0.0003 1.0000
vn 0.0001 0.8371 -0.5471
vn -0.0000 0.8669 0.4984
vn 0.6793 0.7338 -0.0000
vn -0.5776 0.8163 -0.0002
vn 0.0006 1.0000 -0.0000
vn -0.0189 0.9997 -0.0124
vn -0.0000 0.9999 0.0143
vn -0.0001 0.8371 -0.5471
vn 0.0004 0.0003 1.0000
vn 0.0001 0.9995 -0.0327
vn -0.0486 0.9988 -0.0085
vn -0.5776 0.8163 0.0002
vn 1.0000 0.0003 0.0007
vn 1.0000 -0.0000 0.0038
vn -0.0000 -0.5480 -0.8365
vn 0.9932 0.0974 -0.0635
vn -0.9896 0.1204 -0.0784
vn -0.0000 -0.4991 0.8666
vn -0.9904 0.1201 0.0688
vn 0.9937 0.0969 0.0555
vn 0.7331 -0.6802 -0.0000
vn 0.1253 0.1358 0.9828
vn 0.1161 0.1258 -0.9852
vn -0.8155 -0.5787 -0.0000
vn -0.0896 0.1271 -0.9878
vn -0.0969 0.1374 0.9858
vn -0.0000 0.0249 0.9997
vn -0.9756 0.2191 -0.0146
vn 0.9793 0.2022 0.0117
vn 0.0008 0.2197 -0.9756
vn 0.0008 0.2168 0.9762
vn 0.9997 0.0254 -0.0006
vn -0.0143 0.2262 0.9740
vn -0.0008 0.2046 -0.9789
vn -0.0000 0.0138 -0.9999
vn 0.9754 0.2203 0.0036
vn -0.9775 0.2111 0.0035
vn 0.0004 0.0104 0.9999
vn 0.9992 0.0403 -0.0007
vn 0.0038 -0.0000 -1.0000
vn -0.0038 -0.0000 1.0000
vn -0.0000 1.0000 -0.0000
vt 0.000000 0.000000
vt 1.000000 0.000000
vt 1.000000 1.000000
vt 0.000000 1.000000
s 0
usemtl cardboard
f 25/1/1 1/1/1 17/1/1 28/1/1
f 1/1/2 5/1/2 6/1/2 2/1/2
f 2/1/3 6/1/3 7/1/3 3/1/3
f 29/1/4 30/1/4 8/1/4 4/1/4
f 26/1/5 25/1/5 4/1/5 8/1/5
f 26/1/6 8/1/6 10/1/6 27/1/6
f 7/1/7 6/1/7 11/1/7 12/1/7
f 6/1/8 5/1/8 13/1/8 14/1/8
f 30/1/9 7/1/9 15/1/9 31/1/9
f 1/1/10 2/1/10 20/1/10 19/1/10
f 29/1/11 4/1/11 22/1/11 32/1/11
f 2/1/12 3/1/12 24/1/12 23/1/12
f 5/1/6 26/1/6 27/1/6 9/1/6
f 5/1/5 1/1/5 25/1/5 26/1/5
f 4/1/13 25/1/13 28/1/13 18/1/13
f 3/1/14 29/1/14 32/1/14 21/1/14
f 8/1/9 30/1/9 31/1/9 16/1/9
f 3/1/4 7/1/4 30/1/4 29/1/4
f 61/1/16 64/1/16 53/1/16 37/1/16
f 37/1/17 38/1/17 42/1/17 41/1/17
f 38/1/18 39/1/18 43/1/18 42/1/18
f 65/1/19 40/1/19 44/1/19 66/1/19
f 62/1/20 44/1/20 40/1/20 61/1/20
f 62/1/21 63/1/21 46/1/21 44/1/21
f 43/1/22 48/1/22 47/1/22 42/1/22
f 42/1/23 50/1/23 49/1/23 41/1/23
f 66/1/24 67/1/24 51/1/24 43/1/24
f 37/1/25 55/1/25 56/1/25 38/1/25
f 65/1/26 68/1/26 58/1/26 40/1/26
f 38/1/27 59/1/27 60/1/27 39/1/27
f 41/1/28 45/1/28 63/1/28 62/1/28
f 41/1/29 62/1/29 61/1/29 37/1/29
f 40/1/30 54/1/30 64/1/30 61/1/30
f 39/1/31 57/1/31 68/1/31 65/1/31
f 44/1/32 52/1/32 67/1/32 66/1/32
f 39/1/33 65/1/33 66/1/33 43/1/33
f 27/1/35 10/1/35 46/1/35 63/1/35
f 5/1/36 9/1/36 45/1/36 41/1/36
f 10/1/37 8/1/37 44/1/37 46/1/37
f 12/1/38 11/1/38 47/1/38 48/1/38
f 7/1/39 12/1/39 48/1/39 43/1/39
f 11/1/40 6/1/40 42/1/40 47/1/40
f 14/1/41 13/1/41 49/1/41 50/1/41
f 6/1/42 14/1/42 50/1/42 42/1/42
f 13/1/43 5/1/43 41/1/43 49/1/43
f 16/1/44 31/1/44 67/1/44 52/1/44
f 8/1/45 16/1/45 52/1/45 44/1/45
f 15/1/46 7/1/46 43/1/46 51/1/46
f 18/1/47 28/1/47 64/1/47 54/1/47
f 4/1/48 18/1/48 54/1/48 40/1/48
f 17/1/49 1/1/49 37/1/49 53/1/49
f 19/1/4 20/1/4 56/1/4 55/1/4
f 1/1/50 19/1/50 55/1/50 37/1/50
f 20/1/51 2/1/51 38/1/51 56/1/51
f 32/1/52 22/1/52 58/1/52 68/1/52
f 3/1/53 21/1/53 57/1/53 39/1/53
f 22/1/54 4/1/54 40/1/54 58/1/54
f 23/1/55 24/1/55 60/1/55 59/1/55
f 2/1/56 23/1/56 59/1/56 38/1/56
f 24/1/57 3/1/57 39/1/57 60/1/57
f 9/1/35 27/1/35 63/1/35 45/1/35
f 28/1/58 17/1/58 53/1/58 64/1/58
f 31/1/44 15/1/44 51/1/44 67/1/44
f 21/1/59 32/1/59 68/1/59 57/1/59
usemtl Empty
f 33/1/15 34/2/15 36/3/15 35/4/15
f 69/1/34 71/4/34 72/3/34 70/2/34
f 33/1/60 35/4/60 71/4/60 69/1/60
f 34/2/10 33/1/10 69/1/10 70/2/10
f 36/3/61 34/2/61 70/2/61 72/3/61
f 35/4/62 36/3/62 72/3/62 71/4/62
